<svg width="10vw" height="10vw" viewBox="0 0 137 108" fill="none" xmlns="http://www.w3.org/2000/svg">
    <path d="M0 8C0 3.58172 3.58172 0 8 0H129C133.418 0 137 3.58172 137 8C137 12.4183 133.418 16 129 16H8C3.58172 16 0 12.4183 0 8Z" fill="black"/>
    <path d="M38 55C38 51.6863 40.6863 49 44 49H131C134.314 49 137 51.6863 137 55C137 58.3137 134.314 61 131 61H44C40.6863 61 38 58.3137 38 55Z" fill="black"/>
    <path d="M38 102C38 98.6863 40.6863 96 44 96H131C134.314 96 137 98.6863 137 102C137 105.314 134.314 108 131 108H44C40.6863 108 38 105.314 38 102Z" fill="black"/>
</svg>