<svg width="10vw" height="10vw" viewBox="0 0 137 125" fill="none" xmlns="http://www.w3.org/2000/svg">
    <path d="M38 17C38 12.5817 41.5817 9 46 9H129C133.418 9 137 12.5817 137 17C137 21.4183 133.418 25 129 25H46C41.5817 25 38 21.4183 38 17Z" fill="black"/>
    <path d="M38 64C38 59.5817 41.5817 56 46 56H129C133.418 56 137 59.5817 137 64C137 68.4183 133.418 72 129 72H46C41.5817 72 38 68.4183 38 64Z" fill="black"/>
    <path d="M38 111C38 106.582 41.5817 103 46 103H129C133.418 103 137 106.582 137 111C137 115.418 133.418 119 129 119H46C41.5817 119 38 115.418 38 111Z" fill="black"/>
    <path d="M15.049 0.92705C15.3483 0.00573951 16.6518 0.00574261 16.9511 0.927053L20.0413 10.4377C20.1752 10.8497 20.5591 11.1287 20.9924 11.1287H30.9924C31.9612 11.1287 32.3639 12.3683 31.5802 12.9377L23.49 18.8156C23.1395 19.0702 22.9928 19.5216 23.1267 19.9336L26.2169 29.4443C26.5163 30.3656 25.4618 31.1317 24.6781 30.5623L16.5878 24.6844C16.2373 24.4298 15.7627 24.4298 15.4123 24.6844L7.32202 30.5623C6.53831 31.1317 5.48383 30.3656 5.78318 29.4443L8.87338 19.9336C9.00725 19.5216 8.86059 19.0702 8.51011 18.8156L0.419868 12.9377C-0.363846 12.3683 0.0389329 11.1287 1.00766 11.1287H11.0077C11.441 11.1287 11.8249 10.8497 11.9588 10.4377L15.049 0.92705Z" fill="#F2C94C"/>
    <path d="M15.049 47.9271C15.3483 47.0057 16.6518 47.0057 16.9511 47.9271L20.0413 57.4377C20.1752 57.8497 20.5591 58.1287 20.9924 58.1287H30.9924C31.9612 58.1287 32.3639 59.3683 31.5802 59.9377L23.49 65.8156C23.1395 66.0702 22.9928 66.5216 23.1267 66.9336L26.2169 76.4443C26.5163 77.3656 25.4618 78.1317 24.6781 77.5623L16.5878 71.6844C16.2373 71.4298 15.7627 71.4298 15.4123 71.6844L7.32202 77.5623C6.53831 78.1317 5.48383 77.3656 5.78318 76.4443L8.87338 66.9336C9.00725 66.5216 8.86059 66.0702 8.51011 65.8156L0.419868 59.9377C-0.363846 59.3683 0.0389329 58.1287 1.00766 58.1287H11.0077C11.441 58.1287 11.8249 57.8497 11.9588 57.4377L15.049 47.9271Z" fill="#F2C94C"/>
    <path d="M15.049 94.927C15.3483 94.0057 16.6518 94.0057 16.9511 94.9271L20.0413 104.438C20.1752 104.85 20.5591 105.129 20.9924 105.129H30.9924C31.9612 105.129 32.3639 106.368 31.5802 106.938L23.49 112.816C23.1395 113.07 22.9928 113.522 23.1267 113.934L26.2169 123.444C26.5163 124.366 25.4618 125.132 24.6781 124.562L16.5878 118.684C16.2373 118.43 15.7627 118.43 15.4123 118.684L7.32202 124.562C6.53831 125.132 5.48383 124.366 5.78318 123.444L8.87338 113.934C9.00725 113.522 8.86059 113.07 8.51011 112.816L0.419868 106.938C-0.363846 106.368 0.0389329 105.129 1.00766 105.129H11.0077C11.441 105.129 11.8249 104.85 11.9588 104.438L15.049 94.927Z" fill="#F2C94C"/>
</svg>