<svg width="auto" height="10vw" viewBox="0 0 373 113" fill="none" xmlns="http://www.w3.org/2000/svg">
    <path d="M70.4994 22.6511L20.2125 64.1073C20.2125 64.1659 20.1978 64.2519 20.1684 64.3693C20.1396 64.4857 20.1243 64.5702 20.1243 64.6302V106.609C20.1243 108.125 20.6784 109.438 21.7864 110.544C22.894 111.651 24.2057 112.208 25.7217 112.208H59.3039V78.624H81.6953V112.209H115.277C116.793 112.209 118.106 111.654 119.213 110.544C120.32 109.44 120.876 108.125 120.876 106.609V64.6302C120.876 64.3974 120.845 64.2216 120.788 64.1073L70.4994 22.6511Z" fill="black"/>
    <path d="M140.027 54.6616L120.875 38.7444V3.0617C120.875 2.24596 120.613 1.57511 120.087 1.05008C119.565 0.525651 118.894 0.263438 118.076 0.263438H101.285C100.468 0.263438 99.7979 0.525651 99.2725 1.05008C98.7484 1.57511 98.4865 2.24627 98.4865 3.0617V20.1156L77.1474 2.27384C75.2837 0.757844 73.0678 0 70.502 0C67.9366 0 65.7209 0.757844 63.8554 2.27384L0.971828 54.6616C0.388895 55.1272 0.0693998 55.7539 0.00997311 56.5412C-0.0491473 57.3278 0.154558 58.0149 0.621701 58.5975L6.04393 65.0695C6.51107 65.5939 7.12249 65.9146 7.88064 66.032C8.58059 66.0908 9.28054 65.8862 9.98049 65.4199L70.5002 14.9556L131.02 65.4196C131.488 65.8264 132.099 66.0295 132.857 66.0295H133.12C133.877 65.9143 134.487 65.5915 134.957 65.0683L140.38 58.5972C140.846 58.0133 141.05 57.3275 140.989 56.5399C140.93 55.7548 140.609 55.1281 140.027 54.6616Z" fill="black"/>
    <path d="M191.859 96H186.469V63.3281H154.406V96H149.062V27.75H154.406V58.3594H186.469V27.75H191.859V96ZM250.453 69.2812C250.453 78.0938 248.516 84.9062 244.641 89.7188C240.797 94.5312 235.391 96.9375 228.422 96.9375C221.516 96.9375 216.094 94.5312 212.156 89.7188C208.25 84.9062 206.281 78.1406 206.25 69.4219V54.5625C206.25 45.7812 208.203 38.9688 212.109 34.125C216.016 29.25 221.422 26.8125 228.328 26.8125C235.328 26.8125 240.766 29.25 244.641 34.125C248.516 39 250.453 45.8594 250.453 54.7031V69.2812ZM245.062 54.4688C245.062 47 243.625 41.3906 240.75 37.6406C237.875 33.8906 233.734 32.0156 228.328 32.0156C223.109 32.0156 219.031 33.8594 216.094 37.5469C213.156 41.2031 211.656 46.6875 211.594 54V69.2812C211.594 76.7812 213.078 82.4219 216.047 86.2031C219.016 89.9531 223.141 91.8281 228.422 91.8281C233.859 91.8281 237.984 89.9531 240.797 86.2031C243.641 82.4531 245.062 76.8125 245.062 69.2812V54.4688ZM271.828 27.75L292.5 87.7969L313.266 27.75H320.344V96H315V66.4219L315.469 36.6562L294.562 96H290.438L269.625 36.9375L270.094 66.2344V96H264.75V27.75H271.828ZM368.391 63.3281H341.906V91.0312H372.375V96H336.562V27.75H372.141V32.8125H341.906V58.3594H368.391V63.3281Z" fill="black"/>
</svg>
