<svg width="10vw" height="10vw" viewBox="0 0 137 117" fill="none" xmlns="http://www.w3.org/2000/svg">
    <path d="M38 17C38 12.5817 41.5817 9 46 9H129C133.418 9 137 12.5817 137 17C137 21.4183 133.418 25 129 25H46C41.5817 25 38 21.4183 38 17Z" fill="black"/>
    <path d="M38 64C38 60.6863 40.6863 58 44 58H131C134.314 58 137 60.6863 137 64C137 67.3137 134.314 70 131 70H44C40.6863 70 38 67.3137 38 64Z" fill="black"/>
    <path d="M38 111C38 107.686 40.6863 105 44 105H131C134.314 105 137 107.686 137 111C137 114.314 134.314 117 131 117H44C40.6863 117 38 114.314 38 111Z" fill="black"/>
    <path d="M15.049 0.92705C15.3483 0.00573951 16.6518 0.00574261 16.9511 0.927053L20.0413 10.4377C20.1752 10.8497 20.5591 11.1287 20.9924 11.1287H30.9924C31.9612 11.1287 32.3639 12.3683 31.5802 12.9377L23.49 18.8156C23.1395 19.0702 22.9928 19.5216 23.1267 19.9336L26.2169 29.4443C26.5163 30.3656 25.4618 31.1317 24.6781 30.5623L16.5878 24.6844C16.2373 24.4298 15.7627 24.4298 15.4123 24.6844L7.32202 30.5623C6.53831 31.1317 5.48383 30.3656 5.78318 29.4443L8.87338 19.9336C9.00725 19.5216 8.86059 19.0702 8.51011 18.8156L0.419868 12.9377C-0.363846 12.3683 0.0389329 11.1287 1.00766 11.1287H11.0077C11.441 11.1287 11.8249 10.8497 11.9588 10.4377L15.049 0.92705Z" fill="#F2C94C"/>
</svg>